<?xml version="1.0" encoding="UTF-8" standalone="no"?>
<svg
   xmlns:osb="http://www.openswatchbook.org/uri/2009/osb"
   xmlns:dc="http://purl.org/dc/elements/1.1/"
   xmlns:cc="http://creativecommons.org/ns#"
   xmlns:rdf="http://www.w3.org/1999/02/22-rdf-syntax-ns#"
   xmlns:svg="http://www.w3.org/2000/svg"
   xmlns="http://www.w3.org/2000/svg"
   xmlns:xlink="http://www.w3.org/1999/xlink"
   xmlns:sodipodi="http://sodipodi.sourceforge.net/DTD/sodipodi-0.dtd"
   xmlns:inkscape="http://www.inkscape.org/namespaces/inkscape"
   inkscape:version="1.0 (4035a4fb49, 2020-05-01)"
   sodipodi:docname="com.github.RippieUK.Rconnman2.svg"
   version="1.1"
   width="24"
   height="24"
   id="svg4212">
  <sodipodi:namedview
     showborder="false"
     inkscape:document-rotation="0"
     inkscape:current-layer="svg4212"
     inkscape:window-maximized="1"
     inkscape:window-y="30"
     inkscape:window-x="0"
     inkscape:cy="105.18335"
     inkscape:cx="0.15543543"
     inkscape:zoom="1"
     showgrid="true"
     id="namedview86"
     inkscape:window-height="1373"
     inkscape:window-width="2560"
     inkscape:pageshadow="2"
     inkscape:pageopacity="0"
     guidetolerance="10"
     gridtolerance="10"
     objecttolerance="10"
     borderopacity="1"
     bordercolor="#666666"
     pagecolor="#ffffff">
    <inkscape:grid
       visible="true"
       empspacing="4"
       id="grid893"
       type="xygrid" />
    <inkscape:grid
       visible="false"
       empopacity="0.2745098"
       empcolor="#ffef3f"
       opacity="0.2745098"
       color="#ffef3f"
       dotted="true"
       spacingy="0.5"
       spacingx="0.5"
       empspacing="2"
       id="grid895"
       type="xygrid" />
  </sodipodi:namedview>
  <defs
     id="defs4214">
    <linearGradient
       id="linearGradient89">
      <stop
         id="stop85"
         offset="0"
         style="stop-color:#7239b3;stop-opacity:1" />
      <stop
         id="stop87"
         offset="1"
         style="stop-color:#28bca3;stop-opacity:1" />
    </linearGradient>
    <linearGradient
       id="linearGradient913">
      <stop
         style="stop-color:#fafafa;stop-opacity:1"
         offset="0"
         id="stop909" />
      <stop
         style="stop-color:#d4d4d4;stop-opacity:1"
         offset="1"
         id="stop911" />
    </linearGradient>
    <linearGradient
       id="linearGradient4332">
      <stop
         id="stop4335"
         offset="0"
         style="stop-color:#ffffff;stop-opacity:1;" />
      <stop
         id="stop4337"
         offset="1"
         style="stop-color:#ffffff;stop-opacity:0;" />
    </linearGradient>
    <linearGradient
       id="linearGradient3820-7-2-2">
      <stop
         id="stop3822-2-6-36"
         style="stop-color:#3d3d3d;stop-opacity:1"
         offset="0" />
      <stop
         id="stop3864-8-7-6"
         style="stop-color:#686868;stop-opacity:0.49803922"
         offset="0.5" />
      <stop
         id="stop3824-1-2-4"
         style="stop-color:#686868;stop-opacity:0"
         offset="1" />
    </linearGradient>
    <linearGradient
       id="linearGradient4526"
       osb:paint="solid">
      <stop
         style="stop-color:#ffffff;stop-opacity:1;"
         offset="0"
         id="stop4528" />
    </linearGradient>
    <linearGradient
       id="linearGradient4011-4">
      <stop
         id="stop4013-8"
         style="stop-color:#ffffff;stop-opacity:1"
         offset="0" />
      <stop
         id="stop4015-5"
         style="stop-color:#ffffff;stop-opacity:0.23529412"
         offset="0.507761" />
      <stop
         id="stop4017-6"
         style="stop-color:#ffffff;stop-opacity:0.15686275"
         offset="0.83456558" />
      <stop
         id="stop4019-1"
         style="stop-color:#ffffff;stop-opacity:0.39215687"
         offset="1" />
    </linearGradient>
    <linearGradient
       y2="44.340794"
       x2="71.204407"
       y1="6.2375584"
       x1="71.204407"
       gradientTransform="matrix(0.51351351,0,0,0.51351351,-24.836129,-1.0212859)"
       gradientUnits="userSpaceOnUse"
       id="linearGradient3089"
       xlink:href="#linearGradient4011-4" />
    <linearGradient
       gradientTransform="matrix(0,0.45609445,0.45601273,0,1.5402341,0.21845183)"
       gradientUnits="userSpaceOnUse"
       xlink:href="#linearGradient4804"
       id="linearGradient4362"
       y2="23"
       x2="47.5"
       y1="23"
       x1="3.5" />
    <linearGradient
       id="linearGradient4804">
      <stop
         offset="0"
         style="stop-color:#ffffff;stop-opacity:0"
         id="stop4806" />
      <stop
         id="stop4808"
         style="stop-color:#ffffff;stop-opacity:0.85098039;"
         offset="0.29193082" />
      <stop
         offset="0.45720881"
         style="stop-color:#ffffff;stop-opacity:0.12682927"
         id="stop4812" />
      <stop
         id="stop4818"
         style="stop-color:#ffffff;stop-opacity:0.27317074"
         offset="0.72528207" />
      <stop
         id="stop4816"
         style="stop-color:#ffffff;stop-opacity:1"
         offset="0.83954281" />
      <stop
         offset="1"
         style="stop-color:#ffffff;stop-opacity:0"
         id="stop4810" />
    </linearGradient>
    <linearGradient
       gradientTransform="matrix(0.32244968,0.32250748,-0.32244968,0.32250748,11.222404,-3.7927526)"
       gradientUnits="userSpaceOnUse"
       xlink:href="#linearGradient4820"
       id="linearGradient4355"
       y2="27.242641"
       x2="4.2867966"
       y1="27.262068"
       x1="47.09993" />
    <linearGradient
       id="linearGradient4820">
      <stop
         id="stop4822"
         style="stop-color:#ffffff;stop-opacity:0"
         offset="0" />
      <stop
         offset="0.14318481"
         style="stop-color:#ffffff;stop-opacity:0.85098039;"
         id="stop4824" />
      <stop
         id="stop4826"
         style="stop-color:#ffffff;stop-opacity:0.12682927"
         offset="0.34591126" />
      <stop
         offset="0.43638432"
         style="stop-color:#ffffff;stop-opacity:1"
         id="stop4928" />
      <stop
         id="stop4930"
         style="stop-color:#ffffff;stop-opacity:0.20487805"
         offset="0.58131737" />
      <stop
         offset="0.72528207"
         style="stop-color:#ffffff;stop-opacity:0.27317074"
         id="stop4828" />
      <stop
         offset="0.83954281"
         style="stop-color:#ffffff;stop-opacity:1"
         id="stop4830" />
      <stop
         id="stop4832"
         style="stop-color:#ffffff;stop-opacity:0"
         offset="1" />
    </linearGradient>
    <linearGradient
       gradientTransform="matrix(0.45601273,0,0,-0.45609445,0.40020412,22.339035)"
       gradientUnits="userSpaceOnUse"
       xlink:href="#linearGradient4834"
       id="linearGradient4344"
       y2="23"
       x2="47.500416"
       y1="23"
       x1="4.4897356" />
    <linearGradient
       id="linearGradient4834">
      <stop
         id="stop4836"
         style="stop-color:#ffffff;stop-opacity:0"
         offset="0" />
      <stop
         offset="0.16829832"
         style="stop-color:#ffffff;stop-opacity:0.85098039;"
         id="stop4838" />
      <stop
         id="stop4840"
         style="stop-color:#ffffff;stop-opacity:0.12682927"
         offset="0.45720881" />
      <stop
         offset="0.60839313"
         style="stop-color:#ffffff;stop-opacity:0.27317074"
         id="stop4842" />
      <stop
         offset="0.69343168"
         style="stop-color:#ffffff;stop-opacity:1"
         id="stop4844" />
      <stop
         id="stop4846"
         style="stop-color:#ffffff;stop-opacity:0"
         offset="1" />
    </linearGradient>
    <linearGradient
       y2="22.179625"
       x2="44.628685"
       y1="58.276134"
       x1="5.5509381"
       gradientTransform="matrix(0,0.45609445,0.45601273,0,-4.4075927,0.21845183)"
       gradientUnits="userSpaceOnUse"
       id="linearGradient4898"
       xlink:href="#linearGradient4914" />
    <linearGradient
       id="linearGradient4914">
      <stop
         offset="0"
         style="stop-color:#ffffff;stop-opacity:0"
         id="stop4916" />
      <stop
         id="stop4918"
         style="stop-color:#ffffff;stop-opacity:0.85098039;"
         offset="0.14318481" />
      <stop
         offset="0.34591126"
         style="stop-color:#ffffff;stop-opacity:0.12682927"
         id="stop4920" />
      <stop
         id="stop4922"
         style="stop-color:#ffffff;stop-opacity:0.27317074"
         offset="0.64451498" />
      <stop
         id="stop4924"
         style="stop-color:#ffffff;stop-opacity:1"
         offset="0.72840828" />
      <stop
         offset="0.80897337"
         style="stop-color:#ffffff;stop-opacity:0.2292683"
         id="stop4932" />
      <stop
         offset="1"
         style="stop-color:#ffffff;stop-opacity:0"
         id="stop4926" />
    </linearGradient>
    <linearGradient
       y2="22.179625"
       x2="44.628685"
       y1="58.276134"
       x1="5.5509381"
       gradientTransform="matrix(0,-0.45609445,-0.45601273,0,20.103517,24.045472)"
       gradientUnits="userSpaceOnUse"
       id="linearGradient4946"
       xlink:href="#linearGradient4914" />
    <linearGradient
       y2="17.055471"
       x2="40.761398"
       y1="48.221191"
       x1="25.177414"
       gradientTransform="matrix(0,0.45609445,0.45601273,0,0.62862962,2.6751917)"
       gradientUnits="userSpaceOnUse"
       id="linearGradient4950"
       xlink:href="#linearGradient4952" />
    <linearGradient
       id="linearGradient4952">
      <stop
         id="stop4954"
         style="stop-color:#ffffff;stop-opacity:0"
         offset="0" />
      <stop
         offset="0.44845921"
         style="stop-color:#ffffff;stop-opacity:0.27317074"
         id="stop4960" />
      <stop
         offset="0.54972553"
         style="stop-color:#ffffff;stop-opacity:1"
         id="stop4962" />
      <stop
         id="stop4964"
         style="stop-color:#ffffff;stop-opacity:0.2292683"
         offset="0.72087312" />
      <stop
         id="stop4966"
         style="stop-color:#ffffff;stop-opacity:0"
         offset="1" />
    </linearGradient>
    <radialGradient
       gradientUnits="userSpaceOnUse"
       gradientTransform="matrix(0.72413793,0,0,0.7242677,0.4137931,0.41060391)"
       r="1.722055"
       fy="21.350958"
       fx="12.767352"
       cy="21.350958"
       cx="12.767352"
       id="radialGradient4339"
       xlink:href="#linearGradient4332" />
    <radialGradient
       gradientUnits="userSpaceOnUse"
       gradientTransform="matrix(0.72413793,0,0,0.7242677,0.4137931,0.41187293)"
       r="1.7220547"
       fy="11.571873"
       fx="7.4608822"
       cy="11.571873"
       cx="7.4608822"
       id="radialGradient4341"
       xlink:href="#linearGradient4332" />
    <radialGradient
       gradientUnits="userSpaceOnUse"
       gradientTransform="matrix(0.72413793,0,0,0.7242677,0.4137931,0.41007938)"
       r="1.7220547"
       fy="25.393009"
       fx="20.333241"
       cy="25.393009"
       cx="20.333241"
       id="radialGradient4343"
       xlink:href="#linearGradient4332" />
    <radialGradient
       gradientUnits="userSpaceOnUse"
       gradientTransform="matrix(0.72413793,0,0,0.7242677,0.4137931,0.41195625)"
       r="1.7220547"
       fy="10.929829"
       fx="22.755268"
       cy="10.929829"
       cx="22.755268"
       id="radialGradient4345"
       xlink:href="#linearGradient4332" />
    <radialGradient
       xlink:href="#linearGradient3820-7-2-2"
       id="radialGradient3108"
       gradientUnits="userSpaceOnUse"
       gradientTransform="matrix(0.11151981,0,0,0.03584567,0.9420286,15.076594)"
       cx="99.157013"
       cy="186.17059"
       fx="99.157013"
       fy="186.17059"
       r="62.769119" />
    <linearGradient
       xlink:href="#linearGradient913"
       id="linearGradient915"
       x1="1.5"
       y1="12"
       x2="22.5"
       y2="12"
       gradientUnits="userSpaceOnUse"
       gradientTransform="matrix(0,0.95238095,-0.95238095,0,23.428571,0.57142855)" />
    <linearGradient
       y2="12"
       x2="22.5"
       y1="12"
       x1="1.5"
       gradientTransform="matrix(0,0.80952379,-0.80952379,0,21.714286,2.2857141)"
       gradientUnits="userSpaceOnUse"
       id="linearGradient81"
       xlink:href="#linearGradient89"
       inkscape:collect="always" />
  </defs>
  <metadata
     id="metadata4217">
    <rdf:RDF>
      <cc:Work
         rdf:about="">
        <dc:format>image/svg+xml</dc:format>
        <dc:type
           rdf:resource="http://purl.org/dc/dcmitype/StillImage" />
        <dc:title />
      </cc:Work>
    </rdf:RDF>
  </metadata>
  <path
     inkscape:connector-curvature="0"
     style="fill:url(#radialGradient3108);fill-opacity:1;stroke:none;stroke-width:1"
     id="path3818-0-2"
     d="m 19,21.75 a 7,2.25 0 0 1 -14,0 7,2.25 0 1 1 14,0 z" />
  <path
     d="M 22,12.000001 C 22,6.4823458 17.517656,1.9999996 12.000001,1.9999996 6.4823445,1.9999996 1.9999987,6.4823458 1.9999997,12.000001 1.9999997,17.517654 6.4823445,22.000005 12.000001,22 17.517656,22 22,17.517654 22,12.000001 Z"
     id="path2555"
     style="color:#000000;display:inline;overflow:visible;visibility:visible;fill:url(#linearGradient915);fill-opacity:1;fill-rule:nonzero;stroke:none;stroke-width:0.689655;marker:none;enable-background:accumulate" />
  <path
     d="M 21.5,11.999663 C 21.5,17.246538 17.246393,21.5 12.000121,21.5 6.7533683,21.5 2.5,17.24649 2.5,11.999663 2.5,6.7530303 6.7533683,2.499999 12.000121,2.499999 17.246393,2.499999 21.5,6.7530303 21.5,11.999663 Z"
     id="path8655"
     style="color:#000000;display:inline;overflow:visible;visibility:visible;opacity:1;fill:none;stroke:url(#linearGradient3089);stroke-width:1.00000012;stroke-linecap:round;stroke-linejoin:round;stroke-miterlimit:4;stroke-dasharray:none;stroke-dashoffset:0;stroke-opacity:1;marker:none;enable-background:accumulate" />
  <path
     d="M 12.000001,1.4999993 C 6.2064635,1.4999993 1.5,6.2064607 1.5,11.999999 1.5,17.793537 6.2064635,22.500001 12.000001,22.5 17.793536,22.5 22.500006,17.793537 22.5,11.999999 22.5,6.2064607 17.793536,1.4999993 12.000001,1.4999993 Z"
     id="path2555-6"
     style="color:#000000;clip-rule:nonzero;display:inline;overflow:visible;visibility:visible;opacity:0.5;isolation:auto;mix-blend-mode:normal;color-interpolation:sRGB;color-interpolation-filters:linearRGB;solid-color:#000000;solid-opacity:1;fill:none;fill-opacity:1;fill-rule:nonzero;stroke:#555761;stroke-width:1;stroke-linecap:butt;stroke-linejoin:miter;stroke-miterlimit:4;stroke-dasharray:none;stroke-dashoffset:0;stroke-opacity:1;marker:none;color-rendering:auto;image-rendering:auto;shape-rendering:auto;text-rendering:auto;enable-background:accumulate" />
  <path
     style="color:#000000;display:inline;overflow:visible;visibility:visible;fill:url(#linearGradient81);fill-opacity:1;fill-rule:nonzero;stroke:none;stroke-width:0.586206;marker:none;enable-background:accumulate"
     id="path79"
     d="m 20.5,12.000001 c 0,-4.6900071 -3.809992,-8.5000014 -8.499999,-8.5000014 -4.6900082,0 -8.5000021,3.8099943 -8.5000013,8.5000014 0,4.690005 3.8099931,8.500004 8.5000013,8.499999 C 16.690008,20.5 20.5,16.690006 20.5,12.000001 Z" />
  <g
     style="stroke:#7a0000;opacity:0.15;stroke-width:4"
     id="g125"
     transform="rotate(135,9.4858885,11.354954)">
    <g
       style="stroke:#7a0000;stroke-width:4"
       id="g123" />
  </g>
  <path
     d="m 20.5,12.000001 c 0,-4.6900071 -3.809992,-8.5000014 -8.499999,-8.5000014 -4.6900082,0 -8.5000021,3.8099943 -8.5000013,8.5000014 0,4.690005 3.8099931,8.500004 8.5000013,8.499999 C 16.690008,20.5 20.5,16.690006 20.5,12.000001 Z"
     id="path83"
     style="color:#000000;display:inline;overflow:visible;visibility:visible;opacity:0.5;fill:none;fill-opacity:1;fill-rule:nonzero;stroke:#452981;stroke-width:1;marker:none;enable-background:accumulate" />
  <path
     d="M 11.939453,9 A 4,4 0 0 0 8.1269531,12 H 6 c -0.554,0 -1,0.446 -1,1 0,0.554 0.446,1 1,1 H 8.1269531 A 4,4 0 0 0 12,17 4,4 0 0 0 14.828125,15.828125 0.5,0.5 0 0 0 15,15.449219 a 0.5,0.5 0 0 0 -0.5,-0.5 0.5,0.5 0 0 0 -0.378906,0.171875 A 3,3 0 0 1 12,16 3,3 0 0 1 9,13.050781 3,3 0 0 1 9,13 3,3 0 0 1 11.949219,10 3,3 0 0 1 12,10 3,3 0 0 1 14.121094,10.878906 L 14.125,10.875 a 0.5,0.5 0 0 0 0.375,0.169922 0.5,0.5 0 0 0 0.5,-0.5 A 0.5,0.5 0 0 0 14.800781,10.144531 4,4 0 0 0 12,9 4,4 0 0 0 11.939453,9 Z m 0.01172,2 A 2,2 0 0 0 10,13 a 2,2 0 0 0 2,2 2,2 0 0 0 1.730469,-1 H 18 c 0.554,0 1,-0.446 1,-1 0,-0.554 -0.446,-1 -1,-1 H 13.730469 A 2,2 0 0 0 12,11 a 2,2 0 0 0 -0.04883,0 z"
     style="opacity:0.15;fill:#452981;stroke:#452981;stroke-width:2;stroke-linejoin:round;stop-color:#000000"
     id="path956" />
  <path
     id="path954"
     style="opacity:0.3;fill:#452981;stroke:none;stroke-width:2;stroke-linejoin:round;stop-color:#000000"
     d="M 11.939453,9 A 4,4 0 0 0 8.1269531,12 H 6 c -0.554,0 -1,0.446 -1,1 0,0.554 0.446,1 1,1 H 8.1269531 A 4,4 0 0 0 12,17 4,4 0 0 0 14.828125,15.828125 0.5,0.5 0 0 0 15,15.449219 a 0.5,0.5 0 0 0 -0.5,-0.5 0.5,0.5 0 0 0 -0.378906,0.171875 A 3,3 0 0 1 12,16 3,3 0 0 1 9,13.050781 3,3 0 0 1 9,13 3,3 0 0 1 11.949219,10 3,3 0 0 1 12,10 3,3 0 0 1 14.121094,10.878906 L 14.125,10.875 a 0.5,0.5 0 0 0 0.375,0.169922 0.5,0.5 0 0 0 0.5,-0.5 A 0.5,0.5 0 0 0 14.800781,10.144531 4,4 0 0 0 12,9 4,4 0 0 0 11.939453,9 Z m 0.01172,2 A 2,2 0 0 0 10,13 a 2,2 0 0 0 2,2 2,2 0 0 0 1.730469,-1 H 18 c 0.554,0 1,-0.446 1,-1 0,-0.554 -0.446,-1 -1,-1 H 13.730469 A 2,2 0 0 0 12,11 a 2,2 0 0 0 -0.04883,0 z" />
  <path
     d="M 11.939453 8 A 4 4 0 0 0 8.1269531 11 L 6 11 C 5.446 11 5 11.446 5 12 C 5 12.554 5.446 13 6 13 L 8.1269531 13 A 4 4 0 0 0 12 16 A 4 4 0 0 0 14.828125 14.828125 A 0.5 0.5 0 0 0 15 14.449219 A 0.5 0.5 0 0 0 14.5 13.949219 A 0.5 0.5 0 0 0 14.121094 14.121094 A 3 3 0 0 1 12 15 A 3 3 0 0 1 9 12.050781 A 3 3 0 0 1 9 12 A 3 3 0 0 1 11.949219 9 A 3 3 0 0 1 12 9 A 3 3 0 0 1 14.121094 9.8789062 L 14.125 9.875 A 0.5 0.5 0 0 0 14.5 10.044922 A 0.5 0.5 0 0 0 15 9.5449219 A 0.5 0.5 0 0 0 14.800781 9.1445312 A 4 4 0 0 0 12 8 A 4 4 0 0 0 11.939453 8 z M 11.951172 10 A 2 2 0 0 0 10 12 A 2 2 0 0 0 12 14 A 2 2 0 0 0 13.730469 13 L 18 13 C 18.554 13 19 12.554 19 12 C 19 11.446 18.554 11 18 11 L 13.730469 11 A 2 2 0 0 0 12 10 A 2 2 0 0 0 11.951172 10 z "
     style="opacity:1;fill:#fafafa;stroke:none;stroke-width:2;stroke-linejoin:round;stop-color:#000000"
     id="path926" />
  <g
     style="opacity:1"
     id="g102" />
  <g
     transform="rotate(-45,11.838248,6.6401073)"
     id="g889" />
  <g
     transform="rotate(135,9.4858885,11.354954)"
     id="g117"
     style="stroke:#7a0000;opacity:0.3">
    <g
       id="g115"
       style="stroke:#7a0000" />
  </g>
  <g
     id="g98"
     transform="rotate(135,9.6929953,10.854954)">
    <g
       id="g103" />
  </g>
</svg>
