<?xml version="1.0" encoding="UTF-8" standalone="no"?>
<svg
   xmlns:osb="http://www.openswatchbook.org/uri/2009/osb"
   xmlns:dc="http://purl.org/dc/elements/1.1/"
   xmlns:cc="http://creativecommons.org/ns#"
   xmlns:rdf="http://www.w3.org/1999/02/22-rdf-syntax-ns#"
   xmlns:svg="http://www.w3.org/2000/svg"
   xmlns="http://www.w3.org/2000/svg"
   xmlns:xlink="http://www.w3.org/1999/xlink"
   xmlns:sodipodi="http://sodipodi.sourceforge.net/DTD/sodipodi-0.dtd"
   xmlns:inkscape="http://www.inkscape.org/namespaces/inkscape"
   version="1.1"
   width="32"
   height="32"
   id="svg4212"
   sodipodi:docname="authy.svg"
   inkscape:version="1.0 (4035a4fb49, 2020-05-01)">
  <sodipodi:namedview
     pagecolor="#ffffff"
     bordercolor="#666666"
     borderopacity="1"
     objecttolerance="10"
     gridtolerance="10"
     guidetolerance="10"
     inkscape:pageopacity="0"
     inkscape:pageshadow="2"
     inkscape:window-width="2560"
     inkscape:window-height="1373"
     id="namedview86"
     showgrid="true"
     inkscape:zoom="1"
     inkscape:cx="306.3151"
     inkscape:cy="-9.1232374"
     inkscape:window-x="0"
     inkscape:window-y="30"
     inkscape:window-maximized="1"
     inkscape:current-layer="svg4212"
     inkscape:document-rotation="0">
    <inkscape:grid
       type="xygrid"
       id="grid893"
       empspacing="4" />
    <inkscape:grid
       type="xygrid"
       id="grid895"
       color="#ffef3f"
       opacity="0.2745098"
       empcolor="#ffef3f"
       empopacity="0.2745098"
       spacingy="0.5"
       spacingx="0.5"
       empspacing="2"
       dotted="true" />
  </sodipodi:namedview>
  <defs
     id="defs4214">
    <linearGradient
       id="linearGradient89">
      <stop
         style="stop-color:#7239b3;stop-opacity:1"
         offset="0"
         id="stop85" />
      <stop
         style="stop-color:#28bca3;stop-opacity:1"
         offset="1"
         id="stop87" />
    </linearGradient>
    <linearGradient
       id="linearGradient902">
      <stop
         id="stop898"
         offset="0"
         style="stop-color:#fafafa;stop-opacity:1" />
      <stop
         id="stop900"
         offset="1"
         style="stop-color:#d4d4d4;stop-opacity:1" />
    </linearGradient>
    <linearGradient
       id="linearGradient4332">
      <stop
         id="stop4335"
         offset="0"
         style="stop-color:#ffffff;stop-opacity:1;" />
      <stop
         id="stop4337"
         offset="1"
         style="stop-color:#ffffff;stop-opacity:0;" />
    </linearGradient>
    <linearGradient
       id="linearGradient3820-7-2-2">
      <stop
         id="stop3822-2-6-36"
         style="stop-color:#3d3d3d;stop-opacity:1"
         offset="0" />
      <stop
         id="stop3864-8-7-6"
         style="stop-color:#686868;stop-opacity:0.49803922"
         offset="0.5" />
      <stop
         id="stop3824-1-2-4"
         style="stop-color:#686868;stop-opacity:0"
         offset="1" />
    </linearGradient>
    <linearGradient
       id="linearGradient4526"
       osb:paint="solid">
      <stop
         style="stop-color:#ffffff;stop-opacity:1;"
         offset="0"
         id="stop4528" />
    </linearGradient>
    <linearGradient
       id="linearGradient4011-4">
      <stop
         id="stop4013-8"
         style="stop-color:#ffffff;stop-opacity:1"
         offset="0" />
      <stop
         id="stop4015-5"
         style="stop-color:#ffffff;stop-opacity:0.23529412"
         offset="0.507761" />
      <stop
         id="stop4017-6"
         style="stop-color:#ffffff;stop-opacity:0.15686275"
         offset="0.83456558" />
      <stop
         id="stop4019-1"
         style="stop-color:#ffffff;stop-opacity:0.39215687"
         offset="1" />
    </linearGradient>
    <linearGradient
       y2="44.340794"
       x2="71.204407"
       y1="6.2375584"
       x1="71.204407"
       gradientTransform="matrix(0.72972969,0,0,0.72972969,-36.346075,-2.50393)"
       gradientUnits="userSpaceOnUse"
       id="linearGradient3089"
       xlink:href="#linearGradient4011-4" />
    <radialGradient
       xlink:href="#linearGradient3820-7-2-2"
       id="radialGradient3315"
       gradientUnits="userSpaceOnUse"
       gradientTransform="matrix(0.17524541,0,0,0.05575992,-1.37681,18.119146)"
       cx="99.157013"
       cy="186.17059"
       fx="99.157013"
       fy="186.17059"
       r="62.769119" />
    <linearGradient
       gradientTransform="matrix(0,0.62984472,0.62973186,0,1.5555614,-0.26917906)"
       gradientUnits="userSpaceOnUse"
       xlink:href="#linearGradient4804"
       id="linearGradient4362"
       y2="23"
       x2="47.5"
       y1="23"
       x1="3.5" />
    <linearGradient
       id="linearGradient4804">
      <stop
         offset="0"
         style="stop-color:#ffffff;stop-opacity:0"
         id="stop4806" />
      <stop
         id="stop4808"
         style="stop-color:#ffffff;stop-opacity:0.85098039;"
         offset="0.29193082" />
      <stop
         offset="0.45720881"
         style="stop-color:#ffffff;stop-opacity:0.12682927"
         id="stop4812" />
      <stop
         id="stop4818"
         style="stop-color:#ffffff;stop-opacity:0.27317074"
         offset="0.72528207" />
      <stop
         id="stop4816"
         style="stop-color:#ffffff;stop-opacity:1"
         offset="0.83954281" />
      <stop
         offset="1"
         style="stop-color:#ffffff;stop-opacity:0"
         id="stop4810" />
    </linearGradient>
    <linearGradient
       gradientTransform="matrix(0.44528766,0.44536747,-0.44528766,0.44536747,14.926177,-5.8084614)"
       gradientUnits="userSpaceOnUse"
       xlink:href="#linearGradient4820"
       id="linearGradient4355"
       y2="27.242641"
       x2="4.2867966"
       y1="27.262068"
       x1="47.09993" />
    <linearGradient
       id="linearGradient4820">
      <stop
         id="stop4822"
         style="stop-color:#ffffff;stop-opacity:0"
         offset="0" />
      <stop
         offset="0.14318481"
         style="stop-color:#ffffff;stop-opacity:0.85098039;"
         id="stop4824" />
      <stop
         id="stop4826"
         style="stop-color:#ffffff;stop-opacity:0.12682927"
         offset="0.34591126" />
      <stop
         offset="0.43638432"
         style="stop-color:#ffffff;stop-opacity:1"
         id="stop4928" />
      <stop
         id="stop4930"
         style="stop-color:#ffffff;stop-opacity:0.20487805"
         offset="0.58131737" />
      <stop
         offset="0.72528207"
         style="stop-color:#ffffff;stop-opacity:0.27317074"
         id="stop4828" />
      <stop
         offset="0.83954281"
         style="stop-color:#ffffff;stop-opacity:1"
         id="stop4830" />
      <stop
         id="stop4832"
         style="stop-color:#ffffff;stop-opacity:0"
         offset="1" />
    </linearGradient>
    <linearGradient
       gradientTransform="matrix(0.62973186,0,0,-0.62984472,-0.01876574,30.278293)"
       gradientUnits="userSpaceOnUse"
       xlink:href="#linearGradient4834"
       id="linearGradient4344"
       y2="23"
       x2="47.500416"
       y1="23"
       x1="4.4897356" />
    <linearGradient
       id="linearGradient4834">
      <stop
         id="stop4836"
         style="stop-color:#ffffff;stop-opacity:0"
         offset="0" />
      <stop
         offset="0.16829832"
         style="stop-color:#ffffff;stop-opacity:0.85098039;"
         id="stop4838" />
      <stop
         id="stop4840"
         style="stop-color:#ffffff;stop-opacity:0.12682927"
         offset="0.45720881" />
      <stop
         offset="0.60839313"
         style="stop-color:#ffffff;stop-opacity:0.27317074"
         id="stop4842" />
      <stop
         offset="0.69343168"
         style="stop-color:#ffffff;stop-opacity:1"
         id="stop4844" />
      <stop
         id="stop4846"
         style="stop-color:#ffffff;stop-opacity:0"
         offset="1" />
    </linearGradient>
    <linearGradient
       y2="22.179625"
       x2="44.628685"
       y1="58.276134"
       x1="5.5509381"
       gradientTransform="matrix(0,0.62984472,0.62973186,0,-6.6581042,-0.26917906)"
       gradientUnits="userSpaceOnUse"
       id="linearGradient4898"
       xlink:href="#linearGradient4914" />
    <linearGradient
       id="linearGradient4914">
      <stop
         offset="0"
         style="stop-color:#ffffff;stop-opacity:0"
         id="stop4916" />
      <stop
         id="stop4918"
         style="stop-color:#ffffff;stop-opacity:0.85098039;"
         offset="0.14318481" />
      <stop
         offset="0.34591126"
         style="stop-color:#ffffff;stop-opacity:0.12682927"
         id="stop4920" />
      <stop
         id="stop4922"
         style="stop-color:#ffffff;stop-opacity:0.27317074"
         offset="0.64451498" />
      <stop
         id="stop4924"
         style="stop-color:#ffffff;stop-opacity:1"
         offset="0.72840828" />
      <stop
         offset="0.80897337"
         style="stop-color:#ffffff;stop-opacity:0.2292683"
         id="stop4932" />
      <stop
         offset="1"
         style="stop-color:#ffffff;stop-opacity:0"
         id="stop4926" />
    </linearGradient>
    <linearGradient
       y2="22.179625"
       x2="44.628685"
       y1="58.276134"
       x1="5.5509381"
       gradientTransform="matrix(0,-0.62984472,-0.62973186,0,27.190571,32.634801)"
       gradientUnits="userSpaceOnUse"
       id="linearGradient4946"
       xlink:href="#linearGradient4914" />
    <linearGradient
       y2="17.055471"
       x2="40.761398"
       y1="48.221191"
       x1="25.177414"
       gradientTransform="matrix(0,0.62984472,0.62973186,0,0.29667901,3.1234617)"
       gradientUnits="userSpaceOnUse"
       id="linearGradient4950"
       xlink:href="#linearGradient4952" />
    <linearGradient
       id="linearGradient4952">
      <stop
         id="stop4954"
         style="stop-color:#ffffff;stop-opacity:0"
         offset="0" />
      <stop
         offset="0.44845921"
         style="stop-color:#ffffff;stop-opacity:0.27317074"
         id="stop4960" />
      <stop
         offset="0.54972553"
         style="stop-color:#ffffff;stop-opacity:1"
         id="stop4962" />
      <stop
         id="stop4964"
         style="stop-color:#ffffff;stop-opacity:0.2292683"
         offset="0.72087312" />
      <stop
         id="stop4966"
         style="stop-color:#ffffff;stop-opacity:0"
         offset="1" />
    </linearGradient>
    <radialGradient
       gradientUnits="userSpaceOnUse"
       gradientTransform="matrix(1,0,0,1.0001792,0,-0.00382619)"
       r="1.722055"
       fy="21.350958"
       fx="12.767352"
       cy="21.350958"
       cx="12.767352"
       id="radialGradient4339"
       xlink:href="#linearGradient4332" />
    <radialGradient
       gradientUnits="userSpaceOnUse"
       gradientTransform="matrix(1,0,0,1.0001792,0,-0.00207373)"
       r="1.7220547"
       fy="11.571873"
       fx="7.4608821"
       cy="11.571873"
       cx="7.4608821"
       id="radialGradient4341"
       xlink:href="#linearGradient4332" />
    <radialGradient
       gradientUnits="userSpaceOnUse"
       gradientTransform="matrix(1,0,0,1.0001792,0,-0.00455054)"
       r="1.7220547"
       fy="25.393009"
       fx="20.333241"
       cy="25.393009"
       cx="20.333241"
       id="radialGradient4343"
       xlink:href="#linearGradient4332" />
    <radialGradient
       gradientUnits="userSpaceOnUse"
       gradientTransform="matrix(1,0,0,1.0001792,0,-0.00195867)"
       r="1.7220547"
       fy="10.929829"
       fx="22.755269"
       cy="10.929829"
       cx="22.755269"
       id="radialGradient4345"
       xlink:href="#linearGradient4332" />
    <linearGradient
       gradientTransform="matrix(0,0.96551717,-0.96551717,0,31.448833,0.55172522)"
       gradientUnits="userSpaceOnUse"
       y2="16.000578"
       x2="30.5"
       y1="16.000578"
       x1="1.5"
       id="linearGradient904"
       xlink:href="#linearGradient902" />
    <linearGradient
       inkscape:collect="always"
       xlink:href="#linearGradient89"
       id="linearGradient81"
       gradientUnits="userSpaceOnUse"
       gradientTransform="matrix(0,0.79310339,-0.79310339,0,28.690113,3.3103458)"
       x1="1.5"
       y1="16.000578"
       x2="30.5"
       y2="16.000578" />
  </defs>
  <metadata
     id="metadata4217">
    <rdf:RDF>
      <cc:Work
         rdf:about="">
        <dc:format>image/svg+xml</dc:format>
        <dc:type
           rdf:resource="http://purl.org/dc/dcmitype/StillImage" />
        <dc:title />
      </cc:Work>
    </rdf:RDF>
  </metadata>
  <path
     style="fill:url(#radialGradient3315);fill-opacity:1;stroke:none"
     id="path3818-0-2-8"
     d="m 27.000001,28.5 a 11,3.4999999 0 1 1 -22,0 11,3.4999999 0 1 1 22,0 z" />
  <path
     d="M 30,16.000002 C 30,8.2752857 23.724719,2.0000015 16.000002,2.0000015 c -7.7247192,0 -14.0000034,6.2752842 -14.0000015,14.0000005 0,7.724714 6.2752823,14.000004 14.0000015,13.999997 C 23.724719,29.999999 30,23.724716 30,16.000002 Z"
     id="path2555"
     style="color:#000000;display:inline;overflow:visible;visibility:visible;fill:url(#linearGradient904);fill-opacity:1;fill-rule:nonzero;stroke:none;stroke-width:0.965517;marker:none;enable-background:accumulate"
     inkscape:connector-curvature="0" />
  <path
     d="M 29.5,15.999522 C 29.5,23.455607 23.455399,29.5 16.000171,29.5 8.54426,29.5 2.5,23.455538 2.5,15.999522 2.5,8.543782 8.54426,2.500001 16.000171,2.500001 23.455399,2.500001 29.5,8.543782 29.5,15.999522 Z"
     id="path8655"
     style="color:#000000;display:inline;overflow:visible;visibility:visible;opacity:1;fill:none;stroke:url(#linearGradient3089);stroke-width:1;stroke-linecap:round;stroke-linejoin:round;stroke-miterlimit:4;stroke-dasharray:none;stroke-dashoffset:0;stroke-opacity:1;marker:none;enable-background:accumulate"
     inkscape:connector-curvature="0" />
  <path
     d="M 16.000002,1.499999 C 7.999402,1.499999 1.5,7.999398 1.5,15.999999 1.5,24.000599 7.999402,30.500002 16.000002,30.5 24.000598,30.5 30.500008,24.000599 30.5,15.999999 c 0,-8.000601 -6.499402,-14.5 -14.499998,-14.5 z"
     id="path2555-6"
     style="color:#000000;clip-rule:nonzero;display:inline;overflow:visible;visibility:visible;opacity:0.5;isolation:auto;mix-blend-mode:normal;color-interpolation:sRGB;color-interpolation-filters:linearRGB;solid-color:#000000;solid-opacity:1;fill:none;fill-opacity:1;fill-rule:nonzero;stroke:#555761;stroke-width:1;stroke-linecap:butt;stroke-linejoin:miter;stroke-miterlimit:4;stroke-dasharray:none;stroke-dashoffset:0;stroke-opacity:1;marker:none;color-rendering:auto;image-rendering:auto;shape-rendering:auto;text-rendering:auto;enable-background:accumulate"
     inkscape:connector-curvature="0" />
  <path
     inkscape:connector-curvature="0"
     style="color:#000000;display:inline;overflow:visible;visibility:visible;fill:url(#linearGradient81);fill-opacity:1;fill-rule:nonzero;stroke:none;stroke-width:0.793103;marker:none;enable-background:accumulate"
     id="path79"
     d="M 27.5,16.000002 C 27.5,9.6546991 22.345305,4.5000013 16.000002,4.5000013 c -6.3453053,0 -11.5000031,5.1546978 -11.5000015,11.5000007 0,6.3453 5.1546962,11.500003 11.5000015,11.499997 6.345303,0 11.499998,-5.154697 11.499998,-11.499997 z" />
  <path
     d="m 16,12.041016 a 5,5 0 0 0 -4.898438,4 H 7 c -0.5539999,0 -1,0.446 -1,1 0,0.554 0.4460001,1 1,1 h 4.101562 a 5,5 0 0 0 4.898438,4 5,5 0 0 0 3.292969,-1.240234 l -0.002,-0.002 a 1,1 0 0 0 0.347656,-0.757812 1,1 0 0 0 -1,-1 1,1 0 0 0 -0.07227,0.0039 c -0.0062,-1.53e-4 -0.0113,-0.0039 -0.01758,-0.0039 -0.01572,9e-6 -0.02935,0.0088 -0.04492,0.0098 a 1,1 0 0 0 -0.152344,0.0332 c -0.06098,0.01719 -0.117255,0.03833 -0.171874,0.07031 a 1,1 0 0 0 -0.222657,0.15625 1,1 0 0 0 -0.0039,0.0039 c -0.125904,0.108123 -0.257968,0.205975 -0.398437,0.291015 -0.0028,0.0017 -0.005,0.0042 -0.0078,0.0059 a 3,3 0 0 1 -0.01172,0.0059 c -0.143759,0.08554 -0.295752,0.158472 -0.451172,0.21875 a 3,3 0 0 1 -0.04883,0.01953 c -0.152853,0.05622 -0.310211,0.100056 -0.470703,0.130859 a 3,3 0 0 1 -0.04297,0.0078 c -0.171312,0.0303 -0.345485,0.04682 -0.521484,0.04687 -0.201087,0 -0.397885,-0.02087 -0.587891,-0.05859 a 3,3 0 0 1 -0.03906,-0.0098 c -0.187207,-0.03983 -0.368512,-0.09501 -0.541016,-0.167969 a 3,3 0 0 1 -0.002,0 c -0.17535,-0.07429 -0.341634,-0.164719 -0.498047,-0.269531 a 3,3 0 0 1 -0.02344,-0.01758 c -0.153186,-0.104836 -0.296785,-0.222804 -0.427735,-0.353515 -0.0013,-0.0013 -0.0026,-0.0026 -0.0039,-0.0039 -0.130356,-0.130595 -0.248888,-0.273066 -0.353515,-0.425782 a 3,3 0 0 1 -0.0039,-0.0059 3,3 0 0 1 -0.01563,-0.02539 C 13.403429,18.552526 13.316429,18.392744 13.244141,18.22461 a 3,3 0 0 1 -0.002,-0.0039 3,3 0 0 1 -0.01172,-0.02734 c -0.07125,-0.171101 -0.127265,-0.349754 -0.166016,-0.535156 a 3,3 0 0 1 -0.0059,-0.02734 C 13.020623,17.440272 13,17.242765 13,17.041016 c 0,-0.201087 0.02087,-0.397885 0.05859,-0.587891 a 3,3 0 0 1 0.0098,-0.03906 c 0.03983,-0.187207 0.09501,-0.368512 0.167969,-0.541016 2.25e-4,-5.32e-4 -2.25e-4,-0.0014 0,-0.002 0.07429,-0.17535 0.164719,-0.341634 0.269531,-0.498047 a 3,3 0 0 1 0.01758,-0.02344 c 0.105356,-0.153945 0.22399,-0.298209 0.355468,-0.429688 0.131124,-0.131124 0.27426,-0.250321 0.427735,-0.355468 a 3,3 0 0 1 0.0078,-0.0039 c 0.0066,-0.0045 0.01285,-0.0092 0.01953,-0.01367 0.156476,-0.104725 0.322646,-0.195342 0.498047,-0.269531 0.17701,-0.07487 0.362246,-0.1339 0.554688,-0.173828 0.0065,-0.0013 0.01305,-0.0026 0.01953,-0.0039 0.191751,-0.03846 0.390678,-0.05859 0.59375,-0.05859 0.178043,-4e-6 0.354199,0.01594 0.527344,0.04687 a 3,3 0 0 1 0.02539,0.0059 c 0.167336,0.03141 0.331206,0.0777 0.490235,0.136719 a 3,3 0 0 1 0.03516,0.01367 c 0.161448,0.06226 0.317921,0.137057 0.466797,0.226563 0.147858,0.08889 0.288095,0.192241 0.419922,0.30664 a 1,1 0 0 0 0.205078,0.144531 c 0.05874,0.03526 0.119388,0.05809 0.185547,0.07617 A 1,1 0 0 0 18.5,15.03125 c 0.01677,0.0011 0.03191,0.0098 0.04883,0.0098 0.0063,0 0.01133,-0.0038 0.01758,-0.0039 a 1,1 0 0 0 0.07227,0.0039 1,1 0 0 0 1,-1 1,1 0 0 0 -0.34961,-0.757812 l 0.0039,-0.0039 A 5,5 0 0 0 16,12.041016 Z m -0.04883,3 a 2,2 0 0 0 -0.365234,0.04297 c -0.01117,0.0024 -0.02211,0.0053 -0.0332,0.0078 a 2,2 0 0 0 -0.332031,0.109375 c -0.01161,0.0049 -0.02366,0.0085 -0.03516,0.01367 a 2,2 0 0 0 -0.318359,0.177734 2,2 0 0 0 -0.275391,0.228516 c -0.0079,0.0078 -0.0157,0.01551 -0.02344,0.02344 -0.0013,0.0013 -0.0026,0.0026 -0.0039,0.0039 a 2,2 0 0 0 -0.220703,0.271484 2,2 0 0 0 -0.0059,0.0098 c -0.0013,0.002 -0.0026,0.0039 -0.0039,0.0059 a 2,2 0 0 0 -0.177734,0.330078 c -0.0011,0.0027 -0.0028,0.0051 -0.0039,0.0078 a 2,2 0 0 0 -0.107422,0.349609 c -0.0024,0.01114 -0.0056,0.022 -0.0078,0.0332 A 2,2 0 0 0 14,17.041016 a 2,2 0 0 0 0.04102,0.402344 2,2 0 0 0 0,0.002 2,2 0 0 0 0.103515,0.339844 2,2 0 0 0 0.0039,0.0078 c 0.0077,0.01902 0.01514,0.03792 0.02344,0.05664 a 2,2 0 0 0 0.166016,0.304687 c 0.0023,0.0035 0.0055,0.0063 0.0078,0.0098 a 2,2 0 0 0 0.234375,0.285156 c 0.0032,0.0033 0.0065,0.0065 0.0098,0.0098 a 2,2 0 0 0 0.285156,0.236328 2,2 0 0 0 0.0039,0.002 c 0.0032,0.0021 0.0066,0.0037 0.0098,0.0059 a 2,2 0 0 0 0.320312,0.175782 c 0.0089,0.0038 0.01838,0.0061 0.02734,0.0098 a 2,2 0 0 0 0.355469,0.109375 c 0.002,4.24e-4 0.0038,0.0015 0.0059,0.002 a 2,2 0 0 0 0.0039,0 A 2,2 0 0 0 16,19.041016 2,2 0 0 0 16.988281,18.777344 c 0.0064,-0.0036 0.01317,-0.006 0.01953,-0.0098 a 2,2 0 0 0 0.396485,-0.304687 2,2 0 0 0 0.0078,-0.0078 2,2 0 0 0 0.31836,-0.414062 H 25 c 0.554,0 1,-0.446 1,-1 0,-0.554 -0.446,-1 -1,-1 h -7.267578 c -0.0017,-0.0029 -0.0042,-0.005 -0.0059,-0.0078 a 2,2 0 0 0 -0.304687,-0.396485 c -0.0069,-0.0069 -0.01258,-0.01465 -0.01953,-0.02148 A 2,2 0 0 0 17.003906,15.3125 2,2 0 0 0 17,15.308594 c -0.0025,-0.0015 -0.0053,-0.0025 -0.0078,-0.0039 a 2,2 0 0 0 -0.457032,-0.189453 c -0.0098,-0.0027 -0.01942,-0.0052 -0.0293,-0.0078 A 2,2 0 0 0 16,15.041016 a 2,2 0 0 0 -0.0293,0 2,2 0 0 0 -0.01953,0 z"
     style="opacity:0.15;fill:#452981;stroke:#452981;stroke-width:2;stroke-linejoin:round;stop-color:#000000"
     id="path947" />
  <g
     style="stroke:#7a0000;opacity:0.15;stroke-width:1.99999995"
     transform="matrix(1.4142136,-1.4142136,1.4142136,1.4142136,-6.455845,17.242641)"
     id="g105" />
  <path
     d="M 27.5,16.000002 C 27.5,9.6546991 22.345305,4.5000013 16.000002,4.5000013 c -6.3453053,0 -11.5000031,5.1546978 -11.5000015,11.5000007 0,6.3453 5.1546962,11.500003 11.5000015,11.499997 6.345303,0 11.499998,-5.154697 11.499998,-11.499997 z"
     id="path83"
     style="color:#000000;display:inline;overflow:visible;visibility:visible;fill:none;fill-opacity:1;fill-rule:nonzero;stroke:#452981;stroke-width:1;marker:none;enable-background:accumulate;opacity:0.5"
     inkscape:connector-curvature="0" />
  <g
     id="g99"
     transform="matrix(1.4142136,-1.4142136,1.4142136,1.4142136,-6.455845,17.242641)"
     style="stroke:#7a0000;opacity:0.3" />
  <g
     transform="matrix(1.4142136,-1.4142136,1.4142136,1.4142136,-6.455845,16.242641)"
     id="g889" />
  <path
     id="path945"
     style="opacity:0.3;fill:#452981;stroke:none;stroke-width:2;stroke-linejoin:round;stop-color:#000000"
     d="m 16,12.041016 a 5,5 0 0 0 -4.898438,4 H 7 c -0.5539999,0 -1,0.446 -1,1 0,0.554 0.4460001,1 1,1 h 4.101562 a 5,5 0 0 0 4.898438,4 5,5 0 0 0 3.292969,-1.240234 l -0.002,-0.002 a 1,1 0 0 0 0.347656,-0.757812 1,1 0 0 0 -1,-1 1,1 0 0 0 -0.07227,0.0039 c -0.0062,-1.53e-4 -0.0113,-0.0039 -0.01758,-0.0039 -0.01572,9e-6 -0.02935,0.0088 -0.04492,0.0098 a 1,1 0 0 0 -0.152344,0.0332 c -0.06098,0.01719 -0.117255,0.03833 -0.171874,0.07031 a 1,1 0 0 0 -0.222657,0.15625 1,1 0 0 0 -0.0039,0.0039 c -0.125904,0.108123 -0.257968,0.205975 -0.398437,0.291015 -0.0028,0.0017 -0.005,0.0042 -0.0078,0.0059 a 3,3 0 0 1 -0.01172,0.0059 c -0.143759,0.08554 -0.295752,0.158472 -0.451172,0.21875 a 3,3 0 0 1 -0.04883,0.01953 c -0.152853,0.05622 -0.310211,0.100056 -0.470703,0.130859 a 3,3 0 0 1 -0.04297,0.0078 c -0.171312,0.0303 -0.345485,0.04682 -0.521484,0.04687 -0.201087,0 -0.397885,-0.02087 -0.587891,-0.05859 a 3,3 0 0 1 -0.03906,-0.0098 c -0.187207,-0.03983 -0.368512,-0.09501 -0.541016,-0.167969 a 3,3 0 0 1 -0.002,0 c -0.17535,-0.07429 -0.341634,-0.164719 -0.498047,-0.269531 a 3,3 0 0 1 -0.02344,-0.01758 c -0.153186,-0.104836 -0.296785,-0.222804 -0.427735,-0.353515 -0.0013,-0.0013 -0.0026,-0.0026 -0.0039,-0.0039 -0.130356,-0.130595 -0.248888,-0.273066 -0.353515,-0.425782 a 3,3 0 0 1 -0.0039,-0.0059 3,3 0 0 1 -0.01563,-0.02539 C 13.403429,18.552526 13.316429,18.392744 13.244141,18.22461 a 3,3 0 0 1 -0.002,-0.0039 3,3 0 0 1 -0.01172,-0.02734 c -0.07125,-0.171101 -0.127265,-0.349754 -0.166016,-0.535156 a 3,3 0 0 1 -0.0059,-0.02734 C 13.020623,17.440272 13,17.242765 13,17.041016 c 0,-0.201087 0.02087,-0.397885 0.05859,-0.587891 a 3,3 0 0 1 0.0098,-0.03906 c 0.03983,-0.187207 0.09501,-0.368512 0.167969,-0.541016 2.25e-4,-5.32e-4 -2.25e-4,-0.0014 0,-0.002 0.07429,-0.17535 0.164719,-0.341634 0.269531,-0.498047 a 3,3 0 0 1 0.01758,-0.02344 c 0.105356,-0.153945 0.22399,-0.298209 0.355468,-0.429688 0.131124,-0.131124 0.27426,-0.250321 0.427735,-0.355468 a 3,3 0 0 1 0.0078,-0.0039 c 0.0066,-0.0045 0.01285,-0.0092 0.01953,-0.01367 0.156476,-0.104725 0.322646,-0.195342 0.498047,-0.269531 0.17701,-0.07487 0.362246,-0.1339 0.554688,-0.173828 0.0065,-0.0013 0.01305,-0.0026 0.01953,-0.0039 0.191751,-0.03846 0.390678,-0.05859 0.59375,-0.05859 0.178043,-4e-6 0.354199,0.01594 0.527344,0.04687 a 3,3 0 0 1 0.02539,0.0059 c 0.167336,0.03141 0.331206,0.0777 0.490235,0.136719 a 3,3 0 0 1 0.03516,0.01367 c 0.161448,0.06226 0.317921,0.137057 0.466797,0.226563 0.147858,0.08889 0.288095,0.192241 0.419922,0.30664 a 1,1 0 0 0 0.205078,0.144531 c 0.05874,0.03526 0.119388,0.05809 0.185547,0.07617 A 1,1 0 0 0 18.5,15.03125 c 0.01677,0.0011 0.03191,0.0098 0.04883,0.0098 0.0063,0 0.01133,-0.0038 0.01758,-0.0039 a 1,1 0 0 0 0.07227,0.0039 1,1 0 0 0 1,-1 1,1 0 0 0 -0.34961,-0.757812 l 0.0039,-0.0039 A 5,5 0 0 0 16,12.041016 Z m -0.04883,3 a 2,2 0 0 0 -0.365234,0.04297 c -0.01117,0.0024 -0.02211,0.0053 -0.0332,0.0078 a 2,2 0 0 0 -0.332031,0.109375 c -0.01161,0.0049 -0.02366,0.0085 -0.03516,0.01367 a 2,2 0 0 0 -0.318359,0.177734 2,2 0 0 0 -0.275391,0.228516 c -0.0079,0.0078 -0.0157,0.01551 -0.02344,0.02344 -0.0013,0.0013 -0.0026,0.0026 -0.0039,0.0039 a 2,2 0 0 0 -0.220703,0.271484 2,2 0 0 0 -0.0059,0.0098 c -0.0013,0.002 -0.0026,0.0039 -0.0039,0.0059 a 2,2 0 0 0 -0.177734,0.330078 c -0.0011,0.0027 -0.0028,0.0051 -0.0039,0.0078 a 2,2 0 0 0 -0.107422,0.349609 c -0.0024,0.01114 -0.0056,0.022 -0.0078,0.0332 A 2,2 0 0 0 14,17.041016 a 2,2 0 0 0 0.04102,0.402344 2,2 0 0 0 0,0.002 2,2 0 0 0 0.103515,0.339844 2,2 0 0 0 0.0039,0.0078 c 0.0077,0.01902 0.01514,0.03792 0.02344,0.05664 a 2,2 0 0 0 0.166016,0.304687 c 0.0023,0.0035 0.0055,0.0063 0.0078,0.0098 a 2,2 0 0 0 0.234375,0.285156 c 0.0032,0.0033 0.0065,0.0065 0.0098,0.0098 a 2,2 0 0 0 0.285156,0.236328 2,2 0 0 0 0.0039,0.002 c 0.0032,0.0021 0.0066,0.0037 0.0098,0.0059 a 2,2 0 0 0 0.320312,0.175782 c 0.0089,0.0038 0.01838,0.0061 0.02734,0.0098 a 2,2 0 0 0 0.355469,0.109375 c 0.002,4.24e-4 0.0038,0.0015 0.0059,0.002 a 2,2 0 0 0 0.0039,0 A 2,2 0 0 0 16,19.041016 2,2 0 0 0 16.988281,18.777344 c 0.0064,-0.0036 0.01317,-0.006 0.01953,-0.0098 a 2,2 0 0 0 0.396485,-0.304687 2,2 0 0 0 0.0078,-0.0078 2,2 0 0 0 0.31836,-0.414062 H 25 c 0.554,0 1,-0.446 1,-1 0,-0.554 -0.446,-1 -1,-1 h -7.267578 c -0.0017,-0.0029 -0.0042,-0.005 -0.0059,-0.0078 a 2,2 0 0 0 -0.304687,-0.396485 c -0.0069,-0.0069 -0.01258,-0.01465 -0.01953,-0.02148 A 2,2 0 0 0 17.003906,15.3125 2,2 0 0 0 17,15.308594 c -0.0025,-0.0015 -0.0053,-0.0025 -0.0078,-0.0039 a 2,2 0 0 0 -0.457032,-0.189453 c -0.0098,-0.0027 -0.01942,-0.0052 -0.0293,-0.0078 A 2,2 0 0 0 16,15.041016 a 2,2 0 0 0 -0.0293,0 2,2 0 0 0 -0.01953,0 z" />
  <path
     d="M 16 11 A 5 5 0 0 0 11.101562 15 L 7 15 C 6.4460001 15 6 15.446 6 16 C 6 16.554 6.4460001 17 7 17 L 11.101562 17 A 5 5 0 0 0 16 21 A 5 5 0 0 0 19.292969 19.759766 L 19.291016 19.757812 A 1 1 0 0 0 19.638672 19 A 1 1 0 0 0 18.638672 18 A 1 1 0 0 0 18.566406 18.003906 C 18.560163 18.003753 18.555108 18 18.548828 18 C 18.533108 18.000009 18.519476 18.008779 18.503906 18.009766 A 1 1 0 0 0 18.351562 18.042969 C 18.290579 18.060157 18.234307 18.081301 18.179688 18.113281 A 1 1 0 0 0 17.957031 18.269531 A 1 1 0 0 0 17.953125 18.273438 C 17.827221 18.381561 17.695157 18.479413 17.554688 18.564453 C 17.551907 18.566136 17.54966 18.568639 17.546875 18.570312 A 3 3 0 0 1 17.535156 18.576172 C 17.391397 18.661713 17.239404 18.734644 17.083984 18.794922 A 3 3 0 0 1 17.035156 18.814453 C 16.882303 18.870672 16.724945 18.914509 16.564453 18.945312 A 3 3 0 0 1 16.521484 18.953125 C 16.350172 18.983422 16.175999 18.999946 16 19 C 15.798913 19 15.602115 18.979135 15.412109 18.941406 A 3 3 0 0 1 15.373047 18.931641 C 15.18584 18.891816 15.004535 18.836635 14.832031 18.763672 A 3 3 0 0 1 14.830078 18.763672 C 14.654728 18.689385 14.488444 18.598953 14.332031 18.494141 A 3 3 0 0 1 14.308594 18.476562 C 14.155408 18.371726 14.011809 18.253758 13.880859 18.123047 C 13.879561 18.121751 13.878249 18.120439 13.876953 18.119141 C 13.746597 17.988546 13.628065 17.846075 13.523438 17.693359 A 3 3 0 0 1 13.519531 17.6875 A 3 3 0 0 1 13.503906 17.662109 C 13.403429 17.51151 13.316429 17.351728 13.244141 17.183594 A 3 3 0 0 1 13.242188 17.179688 A 3 3 0 0 1 13.230469 17.152344 C 13.159215 16.981243 13.103204 16.80259 13.064453 16.617188 A 3 3 0 0 1 13.058594 16.589844 C 13.020623 16.399256 13 16.201749 13 16 C 13 15.798913 13.020865 15.602115 13.058594 15.412109 A 3 3 0 0 1 13.068359 15.373047 C 13.108184 15.18584 13.163365 15.004535 13.236328 14.832031 C 13.236553 14.831499 13.236103 14.83061 13.236328 14.830078 C 13.310615 14.654728 13.401047 14.488444 13.505859 14.332031 A 3 3 0 0 1 13.523438 14.308594 C 13.628794 14.154649 13.747428 14.010385 13.878906 13.878906 C 14.01003 13.747782 14.153166 13.628585 14.306641 13.523438 A 3 3 0 0 1 14.314453 13.519531 C 14.321093 13.51501 14.327307 13.510329 14.333984 13.505859 C 14.49046 13.401134 14.65663 13.310517 14.832031 13.236328 C 15.009041 13.161459 15.194277 13.102428 15.386719 13.0625 C 15.393181 13.061159 15.399772 13.059893 15.40625 13.058594 C 15.598001 13.020135 15.796928 13 16 13 C 16.178043 12.999996 16.354199 13.015936 16.527344 13.046875 A 3 3 0 0 1 16.552734 13.052734 C 16.72007 13.084142 16.88394 13.130434 17.042969 13.189453 A 3 3 0 0 1 17.078125 13.203125 C 17.239573 13.265383 17.396046 13.340182 17.544922 13.429688 C 17.69278 13.518582 17.833017 13.621929 17.964844 13.736328 A 1 1 0 0 0 18.169922 13.880859 C 18.228664 13.916118 18.28931 13.938944 18.355469 13.957031 A 1 1 0 0 0 18.5 13.990234 C 18.516769 13.991376 18.531906 13.99999 18.548828 14 C 18.555108 14 18.560163 13.996247 18.566406 13.996094 A 1 1 0 0 0 18.638672 14 A 1 1 0 0 0 19.638672 13 A 1 1 0 0 0 19.289062 12.242188 L 19.292969 12.238281 A 5 5 0 0 0 16 11 z M 15.951172 14 A 2 2 0 0 0 15.585938 14.042969 C 15.574769 14.045327 15.563832 14.048238 15.552734 14.050781 A 2 2 0 0 0 15.220703 14.160156 C 15.209095 14.16508 15.197041 14.168693 15.185547 14.173828 A 2 2 0 0 0 14.867188 14.351562 A 2 2 0 0 0 14.591797 14.580078 C 14.583932 14.58788 14.576094 14.595585 14.568359 14.603516 C 14.567077 14.604831 14.565732 14.606103 14.564453 14.607422 A 2 2 0 0 0 14.34375 14.878906 A 2 2 0 0 0 14.337891 14.888672 C 14.336573 14.890641 14.335295 14.892557 14.333984 14.894531 A 2 2 0 0 0 14.15625 15.224609 C 14.155132 15.227267 14.153451 15.229758 14.152344 15.232422 A 2 2 0 0 0 14.044922 15.582031 C 14.042547 15.593171 14.039298 15.604027 14.037109 15.615234 A 2 2 0 0 0 14 16 A 2 2 0 0 0 14.041016 16.402344 A 2 2 0 0 0 14.041016 16.404297 A 2 2 0 0 0 14.144531 16.744141 A 2 2 0 0 0 14.148438 16.751953 C 14.156167 16.770976 14.163581 16.789868 14.171875 16.808594 A 2 2 0 0 0 14.337891 17.113281 C 14.340214 17.116746 14.343359 17.119598 14.345703 17.123047 A 2 2 0 0 0 14.580078 17.408203 C 14.583314 17.411466 14.586585 17.414728 14.589844 17.417969 A 2 2 0 0 0 14.875 17.654297 A 2 2 0 0 0 14.878906 17.65625 C 14.882066 17.658391 14.885499 17.659986 14.888672 17.662109 A 2 2 0 0 0 15.208984 17.837891 C 15.217882 17.841724 15.227365 17.843949 15.236328 17.847656 A 2 2 0 0 0 15.591797 17.957031 C 15.593834 17.957455 15.595617 17.958567 15.597656 17.958984 A 2 2 0 0 0 15.601562 17.958984 A 2 2 0 0 0 16 18 A 2 2 0 0 0 16.988281 17.736328 C 16.994686 17.732681 17.001448 17.73028 17.007812 17.726562 A 2 2 0 0 0 17.404297 17.421875 A 2 2 0 0 0 17.412109 17.414062 A 2 2 0 0 0 17.730469 17 L 25 17 C 25.554 17 26 16.554 26 16 C 26 15.446 25.554 15 25 15 L 17.732422 15 C 17.730765 14.997131 17.728232 14.995047 17.726562 14.992188 A 2 2 0 0 0 17.421875 14.595703 C 17.415022 14.588766 17.409292 14.581049 17.402344 14.574219 A 2 2 0 0 0 17.003906 14.271484 A 2 2 0 0 0 17 14.267578 C 16.997486 14.266127 16.994708 14.265112 16.992188 14.263672 A 2 2 0 0 0 16.535156 14.074219 C 16.52533 14.071485 16.515735 14.068992 16.505859 14.066406 A 2 2 0 0 0 16 14 A 2 2 0 0 0 15.970703 14 A 2 2 0 0 0 15.951172 14 z "
     style="opacity:1;fill:#fafafa;stroke:none;stroke-width:2;stroke-linejoin:round;stop-color:#000000"
     id="path929" />
</svg>
